<svg width="20" height="20" viewBox="0 0 20 20" fill="none" xmlns="http://www.w3.org/2000/svg">
<rect width="20" height="20" fill="#F5F5F5"/>
<g clip-path="url(#clip0_0_1)">
<rect width="375" height="667" transform="translate(-283 -138)" fill="#FCFBFC"/>
<rect x="-283" y="-15" width="375" height="50" fill="white"/>
<rect x="-13" y="-4" width="94" height="28" rx="14" fill="#D9D9D9"/>
<path d="M11.5625 10L3.125 10" stroke="black" stroke-width="1.375" stroke-linecap="round" stroke-linejoin="round"/>
<path d="M16.875 10L14.6875 10" stroke="black" stroke-width="1.375" stroke-linecap="round" stroke-linejoin="round"/>
<path d="M11.5625 10C11.5625 10.8629 12.2621 11.5625 13.125 11.5625C13.9879 11.5625 14.6875 10.8629 14.6875 10C14.6875 9.13706 13.9879 8.4375 13.125 8.4375C12.2621 8.4375 11.5625 9.13705 11.5625 10Z" stroke="black" stroke-width="1.375" stroke-linecap="round" stroke-linejoin="round"/>
<path d="M5.3125 15.625L3.125 15.625" stroke="black" stroke-width="1.375" stroke-linecap="round" stroke-linejoin="round"/>
<path d="M16.875 15.625L8.4375 15.625" stroke="black" stroke-width="1.375" stroke-linecap="round" stroke-linejoin="round"/>
<path d="M5.3125 15.625C5.3125 16.4879 6.01206 17.1875 6.875 17.1875C7.73794 17.1875 8.4375 16.4879 8.4375 15.625C8.4375 14.7621 7.73794 14.0625 6.875 14.0625C6.01206 14.0625 5.3125 14.7621 5.3125 15.625Z" stroke="black" stroke-width="1.375" stroke-linecap="round" stroke-linejoin="round"/>
<path d="M7.8125 4.375L3.125 4.375" stroke="black" stroke-width="1.375" stroke-linecap="round" stroke-linejoin="round"/>
<path d="M16.875 4.375L10.9375 4.375" stroke="black" stroke-width="1.375" stroke-linecap="round" stroke-linejoin="round"/>
<path d="M7.8125 4.375C7.8125 5.23794 8.51206 5.9375 9.375 5.9375C10.2379 5.9375 10.9375 5.23794 10.9375 4.375C10.9375 3.51206 10.2379 2.8125 9.375 2.8125C8.51206 2.8125 7.8125 3.51205 7.8125 4.375Z" stroke="black" stroke-width="1.375" stroke-linecap="round" stroke-linejoin="round"/>
</g>
<defs>
<clipPath id="clip0_0_1">
<rect width="375" height="667" fill="white" transform="translate(-283 -138)"/>
</clipPath>
</defs>
</svg>
