<svg width="32" height="32" viewBox="0 0 32 32" fill="none" xmlns="http://www.w3.org/2000/svg">
<path d="M15.3754 25.3337C15.1441 25.3337 14.9475 25.2637 14.7856 25.1239C14.6468 24.9608 14.5774 24.7627 14.5774 24.5297V17.2588H7.46464C7.23333 17.2588 7.03672 17.1888 6.8748 17.049C6.73602 16.8859 6.66663 16.6878 6.66663 16.4548V15.3362C6.66663 15.1031 6.73602 14.9167 6.8748 14.7769C7.03672 14.6137 7.23333 14.5322 7.46464 14.5322H14.5774V7.47099C14.5774 7.23795 14.6468 7.05151 14.7856 6.91169C14.9475 6.74856 15.1441 6.66699 15.3754 6.66699H16.5898C16.8211 6.66699 17.0062 6.74856 17.1449 6.91169C17.3069 7.05151 17.3878 7.23795 17.3878 7.47099V14.5322H24.5353C24.7666 14.5322 24.9516 14.6137 25.0904 14.7769C25.2523 14.9167 25.3333 15.1031 25.3333 15.3362V16.4548C25.3333 16.6878 25.2523 16.8859 25.0904 17.049C24.9516 17.1888 24.7666 17.2588 24.5353 17.2588H17.3878V24.5297C17.3878 24.7627 17.3069 24.9608 17.1449 25.1239C17.0062 25.2637 16.8211 25.3337 16.5898 25.3337H15.3754Z" fill="white"/>
</svg>
